<svg xmlns="http://www.w3.org/2000/svg" xmlns:xlink="http://www.w3.org/1999/xlink"><symbol id="icon-cart"><path d="M4.5 15a1.5 1.5 0 100-3 1.5 1.5 0 000 3zM12.5 15a1.5 1.5 0 100-3 1.5 1.5 0 000 3zM15 2H4.07l-.422-2H0v2h2.031l1.985 9H15V9H9.441L15 6.951V2z" fill="#A6A6A6"/></symbol><symbol id="icon-close"><path d="M13.34 10.509l7.376-7.377c.39-.39.39-1.026 0-1.416L19.301.3a1.003 1.003 0 00-1.415 0l-7.377 7.378L3.132.301a1.003 1.003 0 00-1.416 0L.301 1.716c-.39.39-.39 1.026 0 1.416l7.377 7.377-7.377 7.377c-.39.39-.39 1.026 0 1.415l1.416 1.415c.39.39 1.026.39 1.416 0l7.377-7.377 7.377 7.377c.39.39 1.026.39 1.415 0l1.415-1.415c.39-.39.39-1.026 0-1.415l-7.378-7.377z" fill="#FB565A" fill-opacity=".3"/></symbol><symbol id="icon-facebook"><path d="M6.624 0C4.272 0 2.66 1.408 2.66 3.994v2.23H0v3.023h2.66V17h3.182V9.247h2.653l.399-3.023H5.842v-1.93c0-.876.248-1.472 1.527-1.472H9V.119A22.215 22.215 0 006.624 0z" fill="#5C5C50"/></symbol><symbol id="icon-fb"><path d="M12 4V0H8a4 4 0 00-4 4v4H0v4h4v10h4V12h4V8H8V4h4z" fill="#fff"/></symbol><symbol id="icon-instagram"><path fill-rule="evenodd" clip-rule="evenodd" d="M3 0h15c1.65 0 3 1.35 3 3v15c0 1.65-1.35 3-3 3H3c-1.65 0-3-1.35-3-3V3c0-1.65 1.35-3 3-3zm11 10.5C14 8.57 12.43 7 10.5 7S7 8.57 7 10.5 8.57 14 10.5 14s3.5-1.57 3.5-3.5zM3 18V9h1.181c-.118.491-.18.995-.181 1.5a6.5 6.5 0 1013 0 6.451 6.451 0 00-.181-1.5H18v9H3zM14 7h4V3h-4v4z" fill="#fff"/></symbol><symbol id="icon-tw"><path d="M13.376 4.62c.847-.07 1.422-.455 1.643-.978-.306.188-1.254.393-1.778.198a6.37 6.37 0 00-.083-.346C12.758 2.028 11.392.847 9.96.99c.116-.047.233-.09.35-.13.158-.056 1.083-.206.937-.533C11.124.04 9.994.544 9.782.61c.28-.106.745-.287.795-.61-.43.059-.853.262-1.18.558A.81.81 0 009.625.11c-1.148.734-1.818 2.212-2.36 3.646-.427-.413-.805-.738-1.143-.919-.95-.51-2.087-1.041-3.87-1.703-.055.59.291 1.375 1.29 1.897-.216-.03-.612.035-.929.111.13.676.55 1.233 1.69 1.502-.521.035-.79.153-1.034.409.237.47.816 1.023 1.857.91-1.158.499-.472 1.423.47 1.285-1.607 1.66-4.14 1.537-5.595.15 3.798 5.175 12.055 3.06 13.285-1.925.922.008 1.464-.32 1.8-.68-.531.09-1.301-.003-1.71-.173z" fill="#8B7EAC" fill-opacity=".65"/></symbol><symbol id="icon-twitter"><path d="M17 1.657a6.902 6.902 0 01-2.003.557A3.538 3.538 0 0016.53.258c-.674.406-1.42.7-2.214.858A3.461 3.461 0 0011.77 0C9.844 0 8.283 1.582 8.283 3.534c0 .277.03.547.09.806C5.474 4.192 2.905 2.785 1.185.647a3.552 3.552 0 00-.473 1.777c0 1.226.616 2.307 1.552 2.942a3.434 3.434 0 01-1.58-.443v.045c0 1.713 1.202 3.14 2.797 3.466a3.444 3.444 0 01-1.575.06c.444 1.404 1.732 2.426 3.258 2.455A6.942 6.942 0 010 12.412 9.78 9.78 0 005.347 14c6.414 0 9.922-5.385 9.922-10.056 0-.153-.004-.305-.01-.457A7.155 7.155 0 0017 1.657" fill="#5C5C50"/></symbol><symbol id="icon-vk"><path d="M16.138 11.51c.956-.309 2.18 2.04 3.483 2.939.978.681 1.727.534 1.727.534l3.473-.05s1.815-.112.957-1.554c-.071-.12-.503-1.069-2.585-3.022-2.177-2.043-1.882-1.712.739-5.244 1.597-2.153 2.236-3.468 2.036-4.028-.192-.539-1.365-.399-1.365-.399L20.69.713c-.381.001-.704.119-.851.515-.003.004-.621 1.666-1.445 3.079-1.741 2.989-2.436 3.148-2.724 2.961-.661-.433-.494-1.737-.494-2.664 0-2.897.432-4.105-.846-4.417-.427-.104-.739-.172-1.828-.182-1.392-.021-2.574 0-3.244.329-.445.223-.786.712-.579.74.26.035.843.16 1.155.586.401.552.389 1.789.389 1.789s.229 3.411-.54 3.834c-.528.29-1.25-.302-2.803-3.016-.793-1.388-1.392-2.922-1.392-2.922s-.116-.285-.326-.441c-.25-.185-.6-.244-.6-.244L.848.684S.29.7.085.946c-.182.218-.015.668-.015.668s2.909 6.881 6.203 10.347c3.02 3.182 6.452 2.971 6.452 2.971h1.555s.469-.054.709-.312c.224-.24.214-.691.214-.691s-.031-2.109.935-2.419z" fill="#fff"/></symbol></svg>